<svg xmlns="http://www.w3.org/2000/svg" viewBox="0 0 64 64" role="img" aria-labelledby="title desc">
  <title id="title">Azir Números favicon</title>
  <desc id="desc">Ícono Spider-Man con telaraña roja y azul sobre fondo oscuro.</desc>
  <rect width="64" height="64" rx="16" fill="#0A0A1A" />
  <circle cx="32" cy="32" r="26" fill="#10255F" stroke="#D91C1C" stroke-width="4" />
  <g stroke="#8FB7FF" stroke-linecap="round" opacity="0.9">
    <path d="M32 9v46" stroke-width="2" />
    <path d="M9 32h46" stroke-width="2" />
    <path d="M15.7 15.7l32.6 32.6" stroke-width="1.8" />
    <path d="M48.3 15.7 15.7 48.3" stroke-width="1.8" />
    <path d="M18 23c8 4 20 4 28 0" stroke-width="1.5" fill="none" />
    <path d="M15 32c10 5 24 5 34 0" stroke-width="1.5" fill="none" />
    <path d="M18 41c8-4 20-4 28 0" stroke-width="1.5" fill="none" />
  </g>
  <g fill="#D91C1C" stroke="#FFFFFF" stroke-width="2.2" stroke-linecap="round" stroke-linejoin="round">
    <ellipse cx="32" cy="37" rx="8" ry="10" />
    <circle cx="32" cy="24" r="5" />
    <path d="M25 29 18 24" />
    <path d="M24 35 15 33" />
    <path d="M24 41 16 44" />
    <path d="M39 29 46 24" />
    <path d="M40 35 49 33" />
    <path d="M40 41 48 44" />
  </g>
</svg>
